<?xml version="1.0" standalone="no"?>
<!DOCTYPE svg PUBLIC "-//W3C//DTD SVG 20010904//EN"
 "http://www.w3.org/TR/2001/REC-SVG-20010904/DTD/svg10.dtd">
<svg version="1.0" xmlns="http://www.w3.org/2000/svg"
 width="854.000000pt" height="854.000000pt" viewBox="0 0 854.000000 854.000000"
 preserveAspectRatio="xMidYMid meet">
<metadata>
Created by potrace 1.11, written by Peter Selinger 2001-2013
</metadata>
<g transform="translate(0.000000,854.000000) scale(0.100000,-0.100000)"
fill="#000000" stroke="none">
<path d="M23 8514 l-23 -23 0 -4211 c0 -3755 2 -4214 15 -4240 11 -21 23 -30
43 -31 86 -4 8392 -5 8415 -1 16 3 35 15 44 28 14 21 15 457 15 4240 l1 4216
-22 21 -22 22 -4221 1 -4221 2 -24 -24z m8203 -124 l162 0 -2 -4117 -1 -4118
-4120 0 -4120 0 0 4115 0 4115 55 5 c41 4 5097 4 8026 0z"/>
<path d="M2529 7036 c-2 -2 -26 -6 -54 -10 -94 -11 -219 -47 -327 -92 -423
-179 -724 -578 -786 -1041 -10 -73 -8 -293 3 -358 92 -551 493 -973 1037
-1092 117 -25 399 -25 517 0 208 45 447 158 564 265 35 33 36 74 2 107 -35 36
-62 31 -137 -24 -332 -241 -773 -289 -1153 -124 -169 74 -354 222 -470 378
-88 118 -167 296 -200 451 -23 107 -27 306 -9 419 68 418 359 764 763 909 139
50 211 61 396 61 279 -1 504 -82 733 -265 81 -66 113 -74 150 -40 39 36 30 77
-30 132 -153 145 -405 266 -641 308 -84 15 -346 27 -358 16z"/>
<path d="M6668 6769 c-10 -5 -1118 -1110 -2463 -2455 -2624 -2624 -2474 -2469
-2427 -2522 29 -33 66 -36 101 -6 17 14 1124 1119 2461 2456 2378 2378 2430
2431 2430 2468 0 29 -6 41 -25 54 -28 18 -52 20 -77 5z"/>
<path d="M5825 4154 c-183 -19 -312 -57 -469 -137 -373 -190 -636 -552 -700
-967 -13 -79 -14 -334 -2 -386 2 -12 7 -38 10 -59 10 -61 52 -194 85 -272 183
-424 599 -733 1051 -781 134 -14 346 -4 406 18 13 5 24 8 24 5 0 -2 15 1 33 6
17 6 42 12 55 15 118 24 406 180 460 249 25 31 21 72 -9 98 -32 26 -67 21
-123 -21 -130 -97 -291 -173 -426 -201 -30 -6 -66 -14 -80 -17 -14 -3 -88 -8
-165 -10 -204 -5 -365 30 -538 117 -338 170 -572 483 -633 848 -3 18 -7 43
-10 55 -7 35 -6 227 2 286 28 232 144 474 314 653 428 452 1132 484 1608 73
53 -45 68 -49 113 -31 22 8 37 44 33 75 -5 31 -72 92 -179 164 -196 132 -414
208 -632 222 -54 3 -102 7 -108 8 -5 1 -59 -3 -120 -10z"/>
</g>
</svg>
