<?xml version="1.0" encoding="utf-8"?>
<!-- Generator: Adobe Illustrator 21.1.0, SVG Export Plug-In . SVG Version: 6.00 Build 0)  -->
<svg version="1.1" id="Layer_1" xmlns="http://www.w3.org/2000/svg" xmlns:xlink="http://www.w3.org/1999/xlink" x="0px" y="0px"
	 viewBox="0 0 410.8 134.8" style="enable-background:new 0 0 410.8 134.8;" xml:space="preserve">
<style type="text/css">
	.st0{fill:#00A2E0;}
</style>
<g>
	<path class="st0" d="M110.9,36.8l43.5,17.1c5.8,2.5,9.5,7.2,9.5,13.6c0,5.9-4.2,10.8-9.5,13.1l0,0L110.9,98v-8.8
		c0-5.7,3.5-10.7,8.5-12.9v0l22.6-9l-22.6-9v0c-4.9-2.2-8.4-7.1-8.5-12.8V36.8L110.9,36.8z"/>
	<path class="st0" d="M178.9,36.8l43.5,17.1c5.8,2.5,9.5,7.2,9.5,13.6c0,5.9-4.2,10.8-9.5,13.1l0,0L178.9,98v-8.8
		c0-5.7,3.5-10.7,8.5-12.9v0l22.6-9l-22.6-9v0c-4.9-2.2-8.4-7.1-8.5-12.8V36.8L178.9,36.8z"/>
	<path class="st0" d="M246.9,36.8l43.5,17.1c5.8,2.5,9.5,7.2,9.5,13.6c0,5.9-4.2,10.8-9.5,13.1l0,0L246.9,98v-8.8
		c0-5.7,3.5-10.7,8.5-12.9v0l22.6-9l-22.6-9v0c-4.9-2.2-8.4-7.1-8.5-12.8V36.8L246.9,36.8z"/>
</g>
</svg>
