<?xml version="1.0" encoding="utf-8"?>
<!-- Generator: Adobe Illustrator 22.0.1, SVG Export Plug-In . SVG Version: 6.00 Build 0)  -->
<svg version="1.1" id="Layer_1" xmlns="http://www.w3.org/2000/svg" xmlns:xlink="http://www.w3.org/1999/xlink" x="0px" y="0px"
	 viewBox="0 0 100 100" style="enable-background:new 0 0 100 100;" xml:space="preserve">
<style type="text/css">
	.st0{fill:#FFFFFF;}
</style>
<g>
	<path class="st0" d="M87.8,27H12.2c-2.5,0-4.5-2-4.5-4.5v-2.4c0-2.5,2-4.5,4.5-4.5h75.7c2.5,0,4.5,2,4.5,4.5v2.4
		C92.3,25,90.3,27,87.8,27z"/>
	<path class="st0" d="M87.8,55.7H12.2c-2.5,0-4.5-2-4.5-4.5v-2.4c0-2.5,2-4.5,4.5-4.5h75.7c2.5,0,4.5,2,4.5,4.5v2.4
		C92.3,53.7,90.3,55.7,87.8,55.7z"/>
	<path class="st0" d="M87.8,84.3H12.2c-2.5,0-4.5-2-4.5-4.5v-2.4c0-2.5,2-4.5,4.5-4.5h75.7c2.5,0,4.5,2,4.5,4.5v2.4
		C92.3,82.3,90.3,84.3,87.8,84.3z"/>
</g>
</svg>
