<?xml version="1.0" encoding="utf-8"?>
<!-- Generator: Adobe Illustrator 21.1.0, SVG Export Plug-In . SVG Version: 6.00 Build 0)  -->
<svg version="1.1" id="Layer_1" xmlns="http://www.w3.org/2000/svg" xmlns:xlink="http://www.w3.org/1999/xlink" x="0px" y="0px"
	 viewBox="0 0 24 24" style="enable-background:new 0 0 24 24;" xml:space="preserve">
<style type="text/css">
	.st0{fill:#232323;}
</style>
<g transform="translate(0,-952.36218)">
	<path class="st0" d="M6.8,952.4c-3.8,0-6.8,3.1-6.8,6.8v10.4c0,3.8,3.1,6.8,6.8,6.8h10.4c3.8,0,6.8-3.1,6.8-6.8v-10.4
		c0-3.8-3.1-6.8-6.8-6.8H6.8z M6.8,954.3h10.4c2.7,0,4.9,2.2,4.9,4.9v10.4c0,2.7-2.2,4.9-4.9,4.9H6.8c-2.7,0-4.9-2.2-4.9-4.9v-10.4
		C1.9,956.5,4.1,954.3,6.8,954.3z M18.5,956.3c-0.7,0-1.3,0.6-1.3,1.3c0,0.7,0.6,1.3,1.3,1.3c0.7,0,1.3-0.6,1.3-1.3
		C19.8,956.8,19.2,956.3,18.5,956.3z M12,957.9c-3.6,0-6.5,2.9-6.5,6.5s2.9,6.5,6.5,6.5s6.5-2.9,6.5-6.5S15.6,957.9,12,957.9z
		 M12,959.8c2.5,0,4.5,2,4.5,4.5s-2,4.5-4.5,4.5c-2.5,0-4.5-2-4.5-4.5S9.5,959.8,12,959.8z"/>
</g>
</svg>
