<?xml version="1.0" encoding="utf-8"?>
<!-- Generator: Adobe Illustrator 22.0.1, SVG Export Plug-In . SVG Version: 6.00 Build 0)  -->
<svg version="1.1" id="Layer_1" xmlns="http://www.w3.org/2000/svg" xmlns:xlink="http://www.w3.org/1999/xlink" x="0px" y="0px"
	 viewBox="0 0 250 250" style="enable-background:new 0 0 250 250;" xml:space="preserve">
<style type="text/css">
	.st0{fill:#232323;}
</style>
<g>
	<g>
		<path class="st0" d="M82.5,121c-19.1,0-34.6-15.5-34.6-34.6s15.5-34.6,34.6-34.6c8.8,0,17.2,3.3,23.6,9.3c0.8,0.7,0.8,1.9,0.1,2.7
			c-0.7,0.8-1.9,0.8-2.7,0.1c-5.7-5.4-13.2-8.3-21.1-8.3c-17,0-30.9,13.8-30.9,30.9s13.8,30.9,30.9,30.9c7.1,0,13.8-2.3,19.3-6.8
			c0.8-0.7,2-0.5,2.7,0.3s0.5,2-0.3,2.7C98.1,118.3,90.4,121,82.5,121z"/>
	</g>
	<g>
		<path class="st0" d="M169.6,197.3c-19.1,0-34.6-15.5-34.6-34.6s15.5-34.6,34.6-34.6c8.8,0,17.2,3.3,23.6,9.3
			c0.8,0.7,0.8,1.9,0.1,2.7s-1.9,0.8-2.7,0.1c-5.7-5.4-13.2-8.3-21.1-8.3c-17,0-30.9,13.8-30.9,30.9s13.8,30.9,30.9,30.9
			c7.1,0,13.8-2.3,19.3-6.8c0.8-0.7,2-0.5,2.7,0.3s0.5,2-0.3,2.7C185.2,194.5,177.5,197.3,169.6,197.3z"/>
	</g>
	<g>
		<path class="st0" d="M236.1,238H13.9c-1,0-1.9-0.8-1.9-1.9V13.9c0-1,0.8-1.9,1.9-1.9h222.2c1,0,1.9,0.8,1.9,1.9v222.2
			C238,237.2,237.2,238,236.1,238z M15.8,234.2h218.4V15.8H15.8V234.2z"/>
	</g>
	<g>
		<path class="st0" d="M60.5,191.4c-0.5,0-1-0.2-1.3-0.6c-0.7-0.7-0.7-1.9,0-2.7l129-129c0.7-0.7,1.9-0.7,2.7,0
			c0.7,0.7,0.7,1.9,0,2.7l-129,129C61.5,191.2,61,191.4,60.5,191.4z"/>
	</g>
	<g>
		<path class="st0" d="M82.5,121c-19.1,0-34.6-15.5-34.6-34.6s15.5-34.6,34.6-34.6c8.8,0,17.2,3.3,23.6,9.3c0.8,0.7,0.8,1.9,0.1,2.7
			c-0.7,0.8-1.9,0.8-2.7,0.1c-5.7-5.4-13.2-8.3-21.1-8.3c-17,0-30.9,13.8-30.9,30.9s13.8,30.9,30.9,30.9c7.1,0,13.8-2.3,19.3-6.8
			c0.8-0.7,2-0.5,2.7,0.3s0.5,2-0.3,2.7C98.1,118.3,90.4,121,82.5,121z"/>
	</g>
</g>
</svg>
