<?xml version="1.0" encoding="utf-8"?>
<!-- Generator: Adobe Illustrator 21.1.0, SVG Export Plug-In . SVG Version: 6.00 Build 0)  -->
<svg version="1.1" id="Layer_1" xmlns="http://www.w3.org/2000/svg" xmlns:xlink="http://www.w3.org/1999/xlink" x="0px" y="0px"
	 viewBox="0 0 892.5 201.2" style="enable-background:new 0 0 892.5 201.2;" xml:space="preserve">
<style type="text/css">
	.st0{fill:url(#SVGID_1_);}
</style>
<linearGradient id="SVGID_1_" gradientUnits="userSpaceOnUse" x1="-233.6743" y1="84.7691" x2="608.756" y2="84.7691" gradientTransform="matrix(1 0 0 1 261.2005 15.3022)">
	<stop  offset="0.5769" style="stop-color:#007DC2"/>
	<stop  offset="0.6009" style="stop-color:#047FC3"/>
	<stop  offset="0.6226" style="stop-color:#0F85C6"/>
	<stop  offset="0.6435" style="stop-color:#218ECC"/>
	<stop  offset="0.6638" style="stop-color:#3B9CD4"/>
	<stop  offset="0.6835" style="stop-color:#5CADDE"/>
	<stop  offset="0.6978" style="stop-color:#79BCE7"/>
</linearGradient>
<path class="st0" d="M173.9,70.8c-23.3,0-41.3,19.4-41.3,42.2c0,25,17.4,39.2,41.5,39.2c22.8,0,40-17.4,40-40.2
	C214,77.7,188,70.8,173.9,70.8z M175.7,148.4c-21.6,0-30.2-23.7-30.2-41.8c0-15.7,7.4-31.6,25.5-31.6c22,0,30,20.9,30,40
	C201.1,137.8,191.3,148.4,175.7,148.4z M291.4,72.9c-1.9,0-5.2,0.7-9.4,0.7c-5.2,0-8.1-0.7-10.4-0.7c-3.3,0-5.5,0.2-5.5,2
	c0,4.1,11.8,1.3,11.8,11.3c0,1.3,0,3-2.2,9.6l-14.2,41.8l-20-51.7l-0.7-3.1c0-7.4,10.5-3.7,10.5-7.6c0-2-1.1-2.4-3.9-2.4
	c-3,0-7.2,0.7-13.7,0.7c-5,0-9.1-0.7-12.9-0.7c-2.6,0-3.7,0.4-3.7,2.2c0,2.6,7,2.8,8.7,6.8l24.2,59.8c1.7,3.9,3.7,8,3.7,12.4
	c0,14.4-16.8,28.3-16.8,32.4c0,1.5,4.3,1.3,6.8,1.3c2.6,0,5.9,0,6.1-0.6l35.2-101.4c3.7-11.1,10-6.5,10-10.7
	C294.9,73.6,293.6,72.9,291.4,72.9z M123.2,124.5c-2.4,0-8.7,19.1-51.5,19.1c-15.5,0-14.1-4.4-14.1-15.4V38.3
	c0-16.1,13.5-11.5,13.5-15.7c0-2.2-1.1-2.6-3.5-2.6c-2.8,0-7.2,0.8-17.8,0.8c-9.1,0-14.8-0.8-18.7-0.8c-2.4,0-3.7,0.4-3.7,2.4
	c0,3.7,15.5,2.4,15.5,12v93.8c0,8.7-0.4,13.9-5.2,16.1c-5.9,3-7.8,2.6-8.1,4.8c0,1.5,1.1,1.9,2.8,1.9c7.4,0,15.2-0.6,22.6-0.7
	c14.1-0.4,28.1,0.7,42.2,0.7c8.1,0,12.2,0.4,18.1-6.3c4.4-4.8,9.3-11.3,9.3-18C124.7,126.3,124.5,124.5,123.2,124.5z M487,141.5
	c-3.2,0-5.9,4.3-15.7,4.3c-7.4,0-12.6-3.5-13-11.1V80.8h24l3.7-6.7c0.6-0.9,1.1-1.9,1.1-2.6c0-0.6-0.4-1.5-1.3-1.5
	c-0.5,0-2.6,3.1-7.2,3.1h-20.4c0-13.3,0.2-17.2-2.4-17.2c-1.5,0-3.3,4.1-7,8.5c-8.8,9.7-12.3,12.9-13.9,14.6
	c-5.1,5.3-13.7,10-23.8,13.7V15.3c0-1.9-1.1-3-2.2-3c-4.3,0-8,5.9-22.2,9.3c-0.9,0.2-1.7,0.9-1.7,2c0,3.9,12.6-0.9,12.6,10.2v63.5
	c-12.2,3.4-24.5,5.8-32.9,7.2V89.9c0-15.7-17.8-19.1-29.2-19.1c-20.5-0.5-30.9,12.4-31.1,20.9c0,3.3,5.5,6.1,8.7,6.1
	c3.5,0,4.1-1.5,4.1-3.5c0-2-1.1-4.8-1.1-7.6c0-10.2,7.2-11.1,16.1-11.1c11.5,0,19,6.5,19,16.1V106c-43.3,7.2-46.4,18.9-46.4,28.7
	c0,13.1,8,17.6,20,17.6c10.4,0,20.5-4.1,28.3-10.7c2.4,6.1,7.2,9.4,14.4,9.4c2.6,0,10.7-0.7,10.7-4.6c0-1.3-1.5-1.3-2.4-1.3
	c-0.8,0-2.4,0.4-3.1,0.4c-9.6,0-8-10.9-8-17.2v-20.3c8.3-1.3,20.5-3.5,32.9-6.8v37.3c0,8-9.1,7.4-9.1,10.2c0,1.7,0.7,2.4,2.2,2.4
	c1.9,0,5.4-0.7,14.4-0.7c8.7,0,14.4,0.7,17,0.7c2.8,0,4.3-0.4,4.3-2.6c0-5-15.4,0.4-15.4-12.4V97c11.9-4.1,22.4-9.5,27.9-16.2
	c1.4,0,3.3,0,5.8,0v50c0,19.1,12.2,21.5,20.7,21.5c12.9,0,22.9-6.3,22.9-9.1C488.5,141.7,487.7,141.5,487,141.5z M351.2,131.9
	c0,9.8-12.6,15-19.2,15c-9.8,0-15.2-4.1-15.2-14.6c0-16.3,22.6-19.2,34.4-21.8V131.9z M869.2,133.4c-4.1,0-10.2,9.6-26.1,9.6
	c-11.3,0-29.8-9.1-29.8-39.6h49.2c4.3,0,6.3,0.2,6.3-3.1c0-7.4-10-29.4-32.7-29.4c-23.1,0-36.3,19.8-36.3,43.5
	c0,12.2,9.6,37.9,37.4,37.9c16.6,0,32.7-13.3,32.7-17.6C870,134.1,870,133.4,869.2,133.4z M833,75.1c10.2,0,20.5,9.3,20.5,19.6
	c0,2.8-1.1,3.7-3.7,3.7h-36.5C813.3,88.2,821.5,75.1,833,75.1z M548,102.5l-12,35.1l-19.8-50.3v-0.1c-0.4-0.7-0.9-2.5-0.9-4.4
	c0-7.4,10.5-3.7,10.5-7.6c0-2-1.1-2.4-3.9-2.4c-3,0-7.2,0.7-13.7,0.7c-5,0-9.1-0.7-12.9-0.7c-2.6,0-3.7,0.4-3.7,2.2
	c0,2.6,7,2.8,8.7,6.8l24.2,59.8c1.7,3.9,3.7,8,3.7,12.4c0,14.4-16.9,28.3-16.9,32.4c0,1.5,4.3,1.3,6.9,1.3c2.6,0,5.9,0,6.1-0.6
	l28.3-81.8l0,0l0.1-0.2c0,0,6.6-22.4,8.7-28.8c2.1-6.4,2.5-9.1,6.1-16.4c3.6-7.3,9.3-15.5,14.9-20.1c2.6-2.1,7.9-6.5,13.8-9.6
	c7.2-3.7,15.4-5.9,22.3-5.9c36.1,0,58.8,32.8,58.8,66.4c0,34.2-21.6,55.9-48.7,55.9c-13.4,0-24.8-4.5-34-11.7v12.5
	c7.7,3.1,16.5,4.8,26.2,4.8c41.3,0,69.9-26.8,69.9-68.5c0-38.3-29.1-65.5-66.8-65.5c-10.5,0-20.7,2.2-29.6,6.2v0c0,0,0,0,0,0
	c0,0-0.1,0-0.1,0.1l0,0c-26.5,13.3-34.3,39.3-36.2,44.4C556.4,74,548,102.5,548,102.5z M782.3,136v-30.5c0-14.1-5.4-34.6-30.2-34.6
	c-18,0-27.2,15.9-26.8,13.7V72.3c0-1.8-1.1-2.9-2.2-2.9c-4.3,0-8,5.9-23.3,9.2c-0.9,0.2-1.7,0.9-1.7,2c0,3.9,13.7-0.9,13.7,10.2
	v45.9c0,12-10.9,8.3-10.9,12c0,1.8,0.9,2.2,3.3,2.2c2.2,0,5.9-0.7,15.7-0.7c10.7,0,14.4,0.7,17.6,0.7c2.8,0,4.1-0.4,4.1-2.6
	c0-5-16.3,0.4-16.3-12.4V93.4c-0.2-3,6.3-14.4,21.8-14.4c15,0,21.6,13.9,21.6,23.1v34.6c0,12-8,8.3-8,12c0,1.8,0.9,2.2,3.3,2.2
	c2.4,0,6.3-0.7,13.3-0.7c9.1,0,13.7,0.7,16.1,0.7c1.9,0,3.2-0.4,3.2-2.6C796.7,143.4,782.3,148.7,782.3,136z"/>
</svg>
