<?xml version="1.0" encoding="utf-8"?>
<!-- Generator: Adobe Illustrator 21.1.0, SVG Export Plug-In . SVG Version: 6.00 Build 0)  -->
<svg version="1.1" id="Layer_1" xmlns="http://www.w3.org/2000/svg" xmlns:xlink="http://www.w3.org/1999/xlink" x="0px" y="0px"
	 viewBox="0 0 410.8 134.8" style="enable-background:new 0 0 410.8 134.8;" xml:space="preserve">
<style type="text/css">
	.st0{fill:#00A2E0;}
</style>
<g>
	<g>
		<g>
			<path class="st0" d="M223,101.1L206,57.6c-2.5-5.8-7.2-9.5-13.6-9.5c-5.9,0-10.8,4.2-13.1,9.5l0,0l-17.5,43.5h8.8
				c5.7-0.1,10.7-3.5,12.8-8.5h0l9-22.6l9,22.6h0c2.2,4.9,7.1,8.4,12.9,8.5H223L223,101.1z"/>
			<path class="st0" d="M170.1,48.5L153.1,92c-2.4,5.8-7.2,9.5-13.6,9.5c-5.9,0-10.8-4.2-13.1-9.5l0,0l-17.5-43.5h8.8
				c5.7,0,10.7,3.5,12.8,8.5h0l9,22.6l9-22.6h0c2.2-4.9,7.1-8.4,12.8-8.5H170.1L170.1,48.5z"/>
			<path class="st0" d="M102.5,86.9c0,7.7-6.2,14-13.9,14.2h-2.8c0,0,0-38.2,0-38.4c0-7.7,6.2-14.1,13.9-14.3h2.8
				C102.5,48.4,102.5,86.3,102.5,86.9L102.5,86.9z"/>
			<path class="st0" d="M81.5,48.5L64.4,92c-2.5,5.8-7.2,9.5-13.6,9.5c-5.9,0-10.8-4.2-13.1-9.5l0,0L20.2,48.5H29
				c5.7,0,10.7,3.5,12.9,8.5h0l9,22.6l9-22.6h0c2.2-4.9,7.1-8.4,12.8-8.5H81.5L81.5,48.5z"/>
		</g>
	</g>
	<g>
		<path class="st0" d="M261.7,101.1V69c0-9.2-5-13.9-12.8-13.9C241.1,55.2,236,60,236,69v32h-7.6v-52h7.6v5.7
			c3.7-4.2,8.8-6.3,14.6-6.3c5.6,0,10.2,1.7,13.3,4.9c3.7,3.6,5.4,8.5,5.4,14.5v33.3H261.7z"/>
		<path class="st0" d="M283.6,77.1c0,11.4,5.4,18,15.3,18c6,0,9.5-1.8,13.6-5.9l5.2,4.5c-5.3,5.3-10.2,8-19,8
			c-13.7,0-22.7-8.2-22.7-26.6c0-16.8,8.1-26.6,21.4-26.6c13.4,0,21.4,9.7,21.4,25.2v3.5H283.6z M309.5,62.7
			c-2-4.8-6.7-7.8-12.2-7.8c-5.5,0-10.2,3.1-12.2,7.8c-1.2,2.9-1.4,4.4-1.6,8.7h27.5C310.9,67.1,310.7,65.6,309.5,62.7z"/>
		<path class="st0" d="M353.7,101.1l-12.5-20.2l-12.7,20.2h-9.2L337,74.5l-16.9-25.5h9.2l11.9,19.2L353,49.1h9.2l-16.9,25.5
			l17.7,26.5H353.7z"/>
		<path class="st0" d="M385.2,101.1c-8.9,0-13.3-6.2-13.3-14V55.2h-6.6v-5.8h6.6V33.1h7.6v16.3h11.1v5.8h-11.1v31.7
			c0,4.8,2.2,7.6,7.1,7.6h4v6.6H385.2z"/>
	</g>
</g>
</svg>
