<?xml version="1.0" encoding="utf-8"?>
<!-- Generator: Adobe Illustrator 21.1.0, SVG Export Plug-In . SVG Version: 6.00 Build 0)  -->
<svg version="1.1" id="Layer_1" xmlns="http://www.w3.org/2000/svg" xmlns:xlink="http://www.w3.org/1999/xlink" x="0px" y="0px"
	 viewBox="0 0 400 400" style="enable-background:new 0 0 400 400;" xml:space="preserve">
<style type="text/css">
	.st0{fill:#FFFFFF;}
</style>
<image style="overflow:visible;" width="1920" height="1080" xlink:href="../../../../Users/Connor Clark/Desktop/vivaLogo/motionIdentity.00_00_01_06.Still004.jpg"  transform="matrix(0.3766 0 0 0.3766 -197 -1.6875)">
</image>
<g>
	<path class="st0" d="M75.7,167h4l6.2,22.5h0.1l6.6-22.5h4.4l6.6,22.5h0.1l6.2-22.5h4l-8.2,28.2h-4.1l-6.8-23h-0.1l-6.8,23h-4.1
		L75.7,167z"/>
	<g>
		<rect x="127.4" y="167" class="st0" width="18.2" height="3.6"/>
		<rect x="127.4" y="179" class="st0" width="18.2" height="3.6"/>
		<rect x="127.4" y="191.6" class="st0" width="18.2" height="3.6"/>
	</g>
	<path class="st0" d="M162.5,189.3c0.7,1,1.6,1.8,2.6,2.3c1.1,0.5,2.2,0.7,3.3,0.7c0.6,0,1.3-0.1,1.9-0.3c0.7-0.2,1.3-0.5,1.8-0.9
		c0.5-0.4,1-0.9,1.3-1.5c0.3-0.6,0.5-1.3,0.5-2c0-1.1-0.3-1.9-1-2.5c-0.7-0.6-1.5-1-2.6-1.4c-1-0.4-2.1-0.8-3.3-1.1
		c-1.2-0.4-2.3-0.9-3.3-1.5c-1-0.6-1.9-1.5-2.6-2.6c-0.7-1.1-1-2.5-1-4.4c0-0.8,0.2-1.7,0.5-2.6c0.4-0.9,0.9-1.8,1.7-2.5
		c0.8-0.8,1.8-1.4,3-1.9c1.2-0.5,2.7-0.8,4.4-0.8c1.5,0,3,0.2,4.4,0.6c1.4,0.4,2.6,1.3,3.7,2.6l-3.1,2.8c-0.5-0.7-1.2-1.3-2-1.8
		c-0.9-0.5-1.9-0.7-3-0.7c-1.1,0-1.9,0.1-2.6,0.4c-0.7,0.3-1.3,0.6-1.7,1.1c-0.4,0.4-0.7,0.9-0.9,1.4c-0.2,0.5-0.3,1-0.3,1.4
		c0,1.2,0.3,2.1,1,2.7c0.7,0.6,1.5,1.2,2.6,1.6c1,0.4,2.1,0.8,3.3,1.1c1.2,0.3,2.3,0.8,3.3,1.3c1,0.6,1.9,1.3,2.6,2.3
		c0.7,1,1,2.3,1,4c0,1.4-0.3,2.6-0.8,3.7c-0.5,1.1-1.2,2-2.1,2.7c-0.9,0.7-1.9,1.3-3.1,1.7c-1.2,0.4-2.5,0.6-3.8,0.6
		c-1.8,0-3.5-0.3-5.1-1c-1.6-0.6-2.9-1.6-3.9-2.9L162.5,189.3z"/>
	<path class="st0" d="M199.6,170.6h-9.1V167h22v3.6h-9.1v24.6h-3.8V170.6z"/>
	<g>
		<rect x="226.9" y="167" class="st0" width="18.2" height="3.6"/>
		<rect x="226.9" y="179" class="st0" width="18.2" height="3.6"/>
		<rect x="226.9" y="191.6" class="st0" width="18.2" height="3.6"/>
	</g>
	<path class="st0" d="M260.8,167H275c1.8,0,3.3,0.2,4.5,0.7c1.2,0.5,2.1,1.1,2.8,1.9c0.7,0.8,1.1,1.6,1.4,2.5
		c0.3,0.9,0.4,1.8,0.4,2.7c0,0.9-0.2,1.8-0.5,2.6c-0.3,0.8-0.8,1.6-1.4,2.3c-0.6,0.7-1.3,1.2-2.2,1.7c-0.9,0.5-1.8,0.7-2.9,0.9
		l8,12.8h-4.8l-7.2-12.4h-8.6v12.4h-3.8V167z M264.6,179.5h9.4c0.7,0,1.5-0.1,2.2-0.2c0.7-0.1,1.4-0.3,1.9-0.7
		c0.6-0.3,1-0.8,1.4-1.4c0.3-0.6,0.5-1.4,0.5-2.3c0-1-0.2-1.7-0.5-2.3c-0.3-0.6-0.8-1.1-1.4-1.4c-0.6-0.3-1.2-0.5-1.9-0.7
		c-0.7-0.1-1.5-0.2-2.2-0.2h-9.4V179.5z"/>
	<path class="st0" d="M299.9,167h5l15.5,23.2h0.1V167h3.8v28.2h-4.9l-15.7-23.2h-0.1v23.2h-3.8V167z"/>
	<path class="st0" d="M275.8,209.1h-9.1v-3.6h22v3.6h-9.1v24.6h-3.8V209.1z"/>
	<path class="st0" d="M298.8,205.5h4.4l8.3,22.9h0.1l8.6-22.9h4.2l-11.1,28.2h-3.6L298.8,205.5z"/>
	<rect x="75.7" y="218.8" class="st0" width="169.4" height="3.6"/>
</g>
</svg>
